<svg xmlns="http://www.w3.org/2000/svg" width="93.207" height="60.96" viewBox="0 0 93.207 60.96">
  <defs>
    <style>
      .cls-1 {
        fill: #9acf1f;
      }
    </style>
  </defs>
  <g id="Tilda_Icons_3st_card" transform="translate(-3.397 -19.52)">
    <path id="Path_20" data-name="Path 20" class="cls-1" d="M89.381,19.52H10.621A7.233,7.233,0,0,0,3.4,26.744V73.257a7.232,7.232,0,0,0,7.224,7.223h78.76A7.231,7.231,0,0,0,96.6,73.257V26.744A7.232,7.232,0,0,0,89.381,19.52ZM6.4,26.744A4.229,4.229,0,0,1,10.62,22.52H89.38A4.228,4.228,0,0,1,93.6,26.744v3.328H6.4ZM93.6,73.256a4.229,4.229,0,0,1-4.223,4.223H10.621A4.229,4.229,0,0,1,6.4,73.256V43.475H93.6Zm0-32.781H6.4v-7.4H93.6v7.4Z"/>
    <path id="Path_21" data-name="Path 21" class="cls-1" d="M17.894,71.566a5.229,5.229,0,1,0-5.229-5.227A5.235,5.235,0,0,0,17.894,71.566Zm0-7.458a2.229,2.229,0,1,1-2.229,2.231A2.234,2.234,0,0,1,17.894,64.108Z"/>
    <path id="Path_22" data-name="Path 22" class="cls-1" d="M29.08,68.015H71.344a1.5,1.5,0,0,0,0-3H29.08a1.5,1.5,0,0,0,0,3Z"/>
  </g>
</svg>
