<svg xmlns="http://www.w3.org/2000/svg" width="101.562" height="102.01" viewBox="0 0 101.562 102.01">
  <defs>
    <style>
      .cls-1 {
        fill: #9acf1f;
      }
    </style>
  </defs>
  <g id="Tilda_Icons_3st_recycling" transform="translate(-3.448 -3.242)">
    <path id="Path_5" data-name="Path 5" class="cls-1" d="M8.317,43.11a1.633,1.633,0,0,0,2.019-1.13A45.385,45.385,0,0,1,39.268,11.538l-2.282,6.124A1.637,1.637,0,1,0,40.054,18.8l3.6-9.648a1.637,1.637,0,0,0-.954-2.1L32.888,3.348A1.637,1.637,0,0,0,31.731,6.41l5.882,2.223A48.7,48.7,0,0,0,7.188,41.092,1.633,1.633,0,0,0,8.317,43.11Z" transform="translate(0.334)"/>
    <path id="Path_6" data-name="Path 6" class="cls-1" d="M41.776,92.585a45.4,45.4,0,0,1-30.43-29.014l6.447,2.289a1.636,1.636,0,1,0,1.1-3.083l-9.7-3.445a1.634,1.634,0,0,0-2.087.986L3.545,70.181a1.637,1.637,0,0,0,.985,2.094,1.617,1.617,0,0,0,.554.1,1.636,1.636,0,0,0,1.539-1.081l2-5.563A48.712,48.712,0,0,0,40.885,95.735a1.637,1.637,0,0,0,.891-3.15Z" transform="translate(0 5.086)"/>
    <path id="Path_7" data-name="Path 7" class="cls-1" d="M94.478,60.259a1.634,1.634,0,0,0-2.02,1.129,45.391,45.391,0,0,1-28.9,30.407L66.4,85.4a1.636,1.636,0,1,0-2.991-1.326l-4.175,9.413a1.636,1.636,0,0,0,.826,2.157l9.564,4.3a1.636,1.636,0,1,0,1.34-2.984l-5.352-2.4a48.7,48.7,0,0,0,30-32.265A1.639,1.639,0,0,0,94.478,60.259Z" transform="translate(5.054 5.173)"/>
    <path id="Path_8" data-name="Path 8" class="cls-1" d="M98.9,30.119a1.636,1.636,0,0,0-2.163.819l-2.581,5.73a48.716,48.716,0,0,0-32-29.34,1.637,1.637,0,0,0-.893,3.149A45.41,45.41,0,0,1,91.237,38.185l-6.058-2.694a1.636,1.636,0,0,0-1.329,2.99l9.408,4.184a1.633,1.633,0,0,0,2.155-.822l4.307-9.56A1.636,1.636,0,0,0,98.9,30.119Z" transform="translate(5.143 0.366)"/>
    <path id="Path_9" data-name="Path 9" class="cls-1" d="M65.044,64.981a1.939,1.939,0,0,0,.151-.163c3.69-4.681,7-17.537,7.5-20.8.52-3.425,2.354-15.207,2.354-15.208a1.63,1.63,0,0,0-.845-1.676,1.659,1.659,0,0,0-1.883.224c-.015.013-1.538,1.33-7.131,3.51C59.308,33.164,42.73,40.91,41.936,41.285A17.139,17.139,0,0,0,37.2,67.744L32.479,73.2a1.636,1.636,0,1,0,2.473,2.142l4.632-5.348a17.135,17.135,0,0,0,25.46-5.009Zm-28.872-8.6A13.935,13.935,0,0,1,43.413,44.2c.171-.08,17.183-8.03,22.963-10.283l.187-.075L39.357,65.255A13.924,13.924,0,0,1,36.172,56.38ZM50.159,70.367a13.9,13.9,0,0,1-8.43-2.851L70.966,33.76c-.554,3.569-1.226,7.9-1.509,9.767-.572,3.744-3.847,15.293-6.731,19.133a2.022,2.022,0,0,0-.159.147,1.666,1.666,0,0,0-.236.323A13.978,13.978,0,0,1,50.159,70.367Z" transform="translate(2.6 2.152)"/>
  </g>
</svg>
