<svg xmlns="http://www.w3.org/2000/svg" width="82.002" height="94.899" viewBox="0 0 82.002 94.899">
  <defs>
    <style>
      .cls-1 {
        fill: #9acf1f;
      }
    </style>
  </defs>
  <g id="Tilda_Icons_3st_discount" transform="translate(-5.998 -2.552)">
    <path id="Path_10" data-name="Path 10" class="cls-1" d="M54.85,40.543a1.5,1.5,0,0,0-2.117.132L31.942,64.229a1.5,1.5,0,0,0,2.249,1.985L54.982,42.66A1.5,1.5,0,0,0,54.85,40.543Z"/>
    <path id="Path_11" data-name="Path 11" class="cls-1" d="M35.893,50.725a6.821,6.821,0,1,0-2.693.554A6.837,6.837,0,0,0,35.893,50.725Zm-6.262-4.807a3.832,3.832,0,0,1-.035-2.96,3.894,3.894,0,0,1,3.6-2.433,3.874,3.874,0,1,1-3.57,5.393Z"/>
    <path id="Path_12" data-name="Path 12" class="cls-1" d="M86.57,43.795a1.5,1.5,0,0,0-.471-1.049,1.484,1.484,0,0,0-1.075-.408L76.4,42.6l1.946-6.125a1.5,1.5,0,0,0-.976-1.884L63.13,30.067,60.7,3.913a1.585,1.585,0,0,0-1.58-1.361,1.5,1.5,0,0,0-1.4.975L49.424,25.713,24.692,17.854a1.5,1.5,0,0,0-1.884.976L6.069,71.508a1.5,1.5,0,0,0,.976,1.884l26.876,8.541.4,14.06a1.5,1.5,0,0,0,1.5,1.458h.043l50.682-1.429A1.5,1.5,0,0,0,88,94.48ZM58.305,10.526,60.026,29.08l-7.739-2.459ZM25.214,21.167,75.035,37,59.205,86.818,9.383,70.986ZM37.276,94.406,36.95,82.893l22.776,7.238a1.5,1.5,0,0,0,1.883-.976L75.438,45.632l8.174-.25,1.346,47.68Z"/>
    <path id="Path_13" data-name="Path 13" class="cls-1" d="M53.864,58.533a6.868,6.868,0,1,0,3.756,3.681A6.827,6.827,0,0,0,53.864,58.533Zm1.025,7.82a3.868,3.868,0,1,1-.028-2.965A3.849,3.849,0,0,1,54.889,66.353Z"/>
  </g>
</svg>
