<svg xmlns="http://www.w3.org/2000/svg" width="77.753" height="86.059" viewBox="0 0 77.753 86.059">
  <defs>
    <style>
      .cls-1 {
        fill: #9acf1f;
      }
    </style>
  </defs>
  <g id="Tilda_Icons_3st_store" transform="translate(-11.124 -6.97)">
    <path id="Path_14" data-name="Path 14" class="cls-1" d="M88.8,32.914,80.494,8A1.5,1.5,0,0,0,79.071,6.97H20.93A1.5,1.5,0,0,0,19.507,8L11.2,32.914a1.5,1.5,0,0,0-.077.474V91.529a1.5,1.5,0,0,0,1.5,1.5H87.377a1.5,1.5,0,0,0,1.5-1.5V33.388A1.5,1.5,0,0,0,88.8,32.914Zm-3.3-.421a17.391,17.391,0,0,1-10.757,3.316A18.813,18.813,0,0,1,63.96,32.37V9.97H77.99ZM39.042,9.97H60.959v22.4A18.593,18.593,0,0,1,39.042,32.1Zm-17.031,0H36.042V32.1a18.782,18.782,0,0,1-21.6.577ZM14.124,90.029V35.987A21.9,21.9,0,0,0,24.9,38.81a21.712,21.712,0,0,0,12.638-4.076A21.66,21.66,0,0,0,62.46,35,21.782,21.782,0,0,0,74.74,38.81a20.806,20.806,0,0,0,11.137-2.967V90.029Z"/>
    <path id="Path_15" data-name="Path 15" class="cls-1" d="M64.807,45.888H35.194a1.5,1.5,0,0,0-1.5,1.5V74.917a1.5,1.5,0,0,0,1.5,1.5H64.807a1.5,1.5,0,0,0,1.5-1.5V47.388A1.5,1.5,0,0,0,64.807,45.888Zm-28.113,3H48.653V73.417H36.694ZM63.307,73.417H51.652V48.888H63.306V73.417Z"/>
  </g>
</svg>
