<svg xmlns="http://www.w3.org/2000/svg" width="101.024" height="66.627" viewBox="0 0 101.024 66.627">
  <defs>
    <style>
      .cls-1 {
        fill: #9acf1f;
      }
    </style>
  </defs>
  <g id="Tilda_Icons_3st_money" transform="translate(-3.214 -19.142)">
    <path id="Path_1" data-name="Path 1" class="cls-1" d="M42.871,45.383a15.059,15.059,0,1,0,15.06,15.06A15.077,15.077,0,0,0,42.871,45.383Zm0,26.88a11.82,11.82,0,1,1,11.821-11.82A11.834,11.834,0,0,1,42.871,72.263Z" transform="translate(1.958 2.089)"/>
    <path id="Path_2" data-name="Path 2" class="cls-1" d="M12.518,45.384A1.619,1.619,0,0,0,10.9,47V73.881a1.619,1.619,0,1,0,3.239,0V47A1.619,1.619,0,0,0,12.518,45.384Z" transform="translate(0.612 2.089)"/>
    <path id="Path_3" data-name="Path 3" class="cls-1" d="M70.767,45.384A1.619,1.619,0,0,0,69.148,47V73.881a1.619,1.619,0,0,0,3.239,0V47A1.619,1.619,0,0,0,70.767,45.384Z" transform="translate(5.249 2.089)"/>
    <path id="Path_4" data-name="Path 4" class="cls-1" d="M102.617,19.142H23.354a1.619,1.619,0,0,0-1.619,1.619v8.01H14.48A1.619,1.619,0,0,0,12.86,30.39v8.9H4.833a1.619,1.619,0,0,0-1.619,1.619V84.15a1.619,1.619,0,0,0,1.619,1.619H84.1a1.62,1.62,0,0,0,1.619-1.619v-8.9h8.028a1.62,1.62,0,0,0,1.619-1.619v-8.01h7.254A1.62,1.62,0,0,0,104.238,64V20.761A1.621,1.621,0,0,0,102.617,19.142ZM6.453,82.53v-40H82.478V73.615s0,.006,0,.011,0,.006,0,.011V82.53ZM92.125,72.006H85.716V40.915A1.619,1.619,0,0,0,84.1,39.3h-68V32.01H92.125ZM101,62.377H95.363V30.39a1.619,1.619,0,0,0-1.619-1.619H24.974v-6.39H101Z" transform="translate(0 0)"/>
  </g>
</svg>
